<svg width="40" height="40" viewBox="0 0 40 40" fill="none" xmlns="http://www.w3.org/2000/svg">
<path d="M0 20C0 8.9543 8.9543 0 20 0C31.0457 0 40 8.9543 40 20C40 31.0457 31.0457 40 20 40C8.9543 40 0 31.0457 0 20Z" fill="url(#paint0_linear_176_2919)"/>
<g clip-path="url(#clip0_176_2919)">
<path d="M11.8428 18.1318C11.6274 18.1318 11.4528 17.9572 11.4528 17.7419V10.4378C11.4528 10.0419 11.9783 9.89849 12.1791 10.2403C12.6657 11.0694 13.4174 11.6769 14.3468 11.9414C14.554 12.0003 14.6741 12.216 14.6152 12.4231C14.5563 12.6303 14.3406 12.7509 14.1334 12.6915C13.4341 12.4927 12.7836 12.1249 12.2328 11.5754V17.7419C12.2328 17.9572 12.0582 18.1318 11.8428 18.1318Z" fill="#1A5B35"/>
<path d="M10.1074 15.6243C11.2715 15.6243 12.2147 16.5676 12.2147 17.7311C12.2147 18.8947 11.2715 19.8379 10.1079 19.8379C8.94386 19.8379 8.00063 18.8947 8.00063 17.7311C8.00063 16.5676 8.94386 15.6243 10.1074 15.6243Z" fill="#1A5B35"/>
<path d="M30.61 14.6558V17.351L18.1973 19.2603C18.17 19.2603 18.1798 19.4601 18.1798 16.6627C18.1798 16.0855 18.6009 15.5941 19.1718 15.5064L29.7116 13.8851C30.184 13.8125 30.61 14.1781 30.61 14.6558Z" fill="#1A5B35"/>
<path d="M18.1798 28.3685C17.9644 28.3685 17.7898 28.1939 17.7898 27.9786V16.6626C17.7898 15.8872 18.346 15.2387 19.1124 15.1209L29.6523 13.4996C30.3592 13.3907 31 13.938 31 14.6558V26.0775C31 26.2928 30.8254 26.4674 30.61 26.4674C30.3947 26.4674 30.2201 26.2928 30.2201 26.0775V14.6558C30.2201 14.4138 30.0042 14.2343 29.7709 14.2705L19.231 15.8918C18.8478 15.9508 18.5697 16.2749 18.5697 16.6626V27.9786C18.5697 28.1939 18.3951 28.3685 18.1798 28.3685Z" fill="#1A5B35"/>
<path d="M10.5488 16.7904C9.90124 17.0008 9.37639 17.5242 9.16586 18.1724C8.97896 18.7479 8.14214 18.7041 8.03436 18.1087C7.77347 16.6671 9.0359 15.3946 10.487 15.6584C11.083 15.7668 11.1249 16.6031 10.5488 16.7904Z" fill="#076D32"/>
<path d="M28.0177 29.0431C29.6648 29.0431 31 27.7079 31 26.0609C31 24.4138 29.6648 23.0786 28.0177 23.0786C26.3706 23.0786 25.0354 24.4138 25.0354 26.0609C25.0354 27.7079 26.3706 29.0431 28.0177 29.0431Z" fill="#1A5B35"/>
<path d="M15.5962 30.9521C17.2385 30.9521 18.5697 29.6208 18.5697 27.9785C18.5697 26.3363 17.2385 25.005 15.5962 25.005C13.954 25.005 12.6227 26.3363 12.6227 27.9785C12.6227 29.6208 13.954 30.9521 15.5962 30.9521Z" fill="#1A5B35"/>
<path d="M17.7898 19.2603V16.6626C17.7898 15.8871 18.3461 15.2388 19.1124 15.1208L29.6523 13.4996C30.3588 13.3915 31 13.9367 31 14.6558C31 15.2329 30.5789 15.7237 30.0084 15.8115L21.5018 17.1199C20.7951 17.2286 20.2292 17.7177 19.9996 18.3595C19.8545 18.765 19.5009 19.0597 19.0753 19.1251C18.4015 19.2286 18.7548 19.1869 17.7898 19.2603Z" fill="#076D32"/>
<path d="M28.3091 24.7798C27.6109 25.087 27.0397 25.6564 26.7325 26.3547C26.3409 27.245 25.0043 26.9292 25.0372 25.9571C25.0895 24.417 26.3268 23.1633 27.8566 23.0828C28.9166 23.0271 29.1942 24.3903 28.3091 24.7798Z" fill="#076D32"/>
<path d="M15.888 26.7071C15.1935 27.013 14.6253 27.5789 14.3194 28.2735C13.9276 29.1633 12.5917 28.8473 12.6245 27.8756C12.6764 26.3398 13.9103 25.0893 15.436 25.0092C16.4964 24.9536 16.7735 26.317 15.888 26.7071Z" fill="#076D32"/>
</g>
<defs>
<linearGradient id="paint0_linear_176_2919" x1="20" y1="40" x2="20" y2="0" gradientUnits="userSpaceOnUse">
<stop stop-color="#CDAF74"/>
<stop offset="1" stop-color="#DBC48D"/>
</linearGradient>
<clipPath id="clip0_176_2919">
<rect width="23" height="23" fill="white" transform="translate(8 9)"/>
</clipPath>
</defs>
</svg>
