<svg width="55" height="22" viewBox="0 0 55 22" fill="none" xmlns="http://www.w3.org/2000/svg">
<path d="M5.76641 4.644C6.15841 4.836 6.46641 5.104 6.69041 5.448C6.91441 5.792 7.02641 6.184 7.02641 6.624C7.02641 7.296 6.79041 7.86 6.31841 8.316C5.84641 8.772 5.27041 9 4.59041 9H0.966406V0.599999H4.32641C4.99041 0.599999 5.54641 0.819999 5.99441 1.26C6.45041 1.7 6.67841 2.244 6.67841 2.892C6.67841 3.644 6.37441 4.228 5.76641 4.644ZM4.32641 1.644H2.08241V4.212H4.32641C4.67841 4.212 4.97441 4.088 5.21441 3.84C5.45441 3.592 5.57441 3.288 5.57441 2.928C5.57441 2.576 5.45041 2.276 5.20241 2.028C4.96241 1.772 4.67041 1.644 4.32641 1.644ZM2.08241 7.956H4.59041C4.96641 7.956 5.28241 7.824 5.53841 7.56C5.79441 7.296 5.92241 6.972 5.92241 6.588C5.92241 6.212 5.79041 5.892 5.52641 5.628C5.27841 5.364 4.96641 5.232 4.59041 5.232H2.08241V7.956ZM10.3532 5.904L13.3172 9H12.0212L9.28522 6.156V9H8.24122V3H9.28522V5.652L11.8772 3H13.2212L10.3532 5.904ZM14.8401 3H19.2921V9H18.2481V4.008H15.8841V6.456C15.8841 7.416 15.6921 8.1 15.3081 8.508C14.9241 8.908 14.3601 9.072 13.6161 9V8.016C14.0321 8.072 14.3401 7.98 14.5401 7.74C14.7401 7.492 14.8401 7.056 14.8401 6.432V3ZM26.118 2.844C26.998 2.844 27.742 3.148 28.35 3.756C28.966 4.372 29.274 5.12 29.274 6C29.274 6.88 28.966 7.628 28.35 8.244C27.742 8.852 26.998 9.156 26.118 9.156C25.326 9.156 24.642 8.904 24.066 8.4C23.482 7.896 23.138 7.26 23.034 6.492H21.918V9H20.874V3H21.918V5.496H23.034C23.146 4.728 23.49 4.096 24.066 3.6C24.658 3.096 25.342 2.844 26.118 2.844ZM26.118 8.136C26.71 8.136 27.21 7.932 27.618 7.524C28.026 7.116 28.23 6.608 28.23 6C28.23 5.392 28.026 4.884 27.618 4.476C27.21 4.068 26.71 3.864 26.118 3.864C25.518 3.864 25.014 4.068 24.606 4.476C24.198 4.884 23.994 5.392 23.994 6C23.994 6.608 24.198 7.116 24.606 7.524C25.014 7.932 25.518 8.136 26.118 8.136ZM34.1697 5.868V3H35.2137V9H34.1697V6.84C33.6817 7.048 33.1417 7.152 32.5497 7.152C31.7737 7.152 31.1777 6.968 30.7617 6.6C30.3457 6.232 30.1377 5.696 30.1377 4.992V3H31.1817V4.932C31.1817 5.372 31.2977 5.692 31.5297 5.892C31.7697 6.084 32.1337 6.18 32.6217 6.18C33.1737 6.18 33.6897 6.076 34.1697 5.868ZM37.8318 7.212L41.1558 3H41.9958V9H40.9638V4.788L37.6398 9H36.7998V3H37.8318V7.212ZM42.913 3H48.049V4.008H46.009V9H44.965V4.008H42.913V3ZM54.4895 6.48H49.4615C49.5655 7.008 49.8095 7.424 50.1935 7.728C50.5775 8.024 51.0575 8.172 51.6335 8.172C52.4255 8.172 53.0015 7.88 53.3615 7.296L54.2495 7.8C53.6575 8.704 52.7775 9.156 51.6095 9.156C50.6655 9.156 49.8895 8.86 49.2815 8.268C48.6895 7.66 48.3935 6.904 48.3935 6C48.3935 5.088 48.6855 4.336 49.2695 3.744C49.8535 3.144 50.6095 2.844 51.5375 2.844C52.4175 2.844 53.1335 3.156 53.6855 3.78C54.2455 4.388 54.5255 5.132 54.5255 6.012C54.5255 6.164 54.5135 6.32 54.4895 6.48ZM51.5375 3.828C50.9855 3.828 50.5215 3.984 50.1455 4.296C49.7775 4.608 49.5495 5.032 49.4615 5.568H53.4695C53.3815 5.016 53.1615 4.588 52.8095 4.284C52.4575 3.98 52.0335 3.828 51.5375 3.828ZM8.94163 14H10.0576V20H9.03763V15.644L7.12963 18.716H6.99763L5.08963 15.644V20H4.05762V14H5.17363L7.05763 17.036L8.94163 14ZM17.4114 17.48H12.3834C12.4874 18.008 12.7314 18.424 13.1154 18.728C13.4994 19.024 13.9794 19.172 14.5554 19.172C15.3474 19.172 15.9234 18.88 16.2834 18.296L17.1714 18.8C16.5794 19.704 15.6994 20.156 14.5314 20.156C13.5874 20.156 12.8114 19.86 12.2034 19.268C11.6114 18.66 11.3154 17.904 11.3154 17C11.3154 16.088 11.6074 15.336 12.1914 14.744C12.7754 14.144 13.5314 13.844 14.4594 13.844C15.3394 13.844 16.0554 14.156 16.6074 14.78C17.1674 15.388 17.4474 16.132 17.4474 17.012C17.4474 17.164 17.4354 17.32 17.4114 17.48ZM14.4594 14.828C13.9074 14.828 13.4434 14.984 13.0674 15.296C12.6994 15.608 12.4714 16.032 12.3834 16.568H16.3914C16.3034 16.016 16.0834 15.588 15.7314 15.284C15.3794 14.98 14.9554 14.828 14.4594 14.828ZM18.9651 14H23.4171V20H22.3731V15.008H20.0091V17.456C20.0091 18.416 19.8171 19.1 19.4331 19.508C19.0491 19.908 18.4851 20.072 17.7411 20V19.016C18.1571 19.072 18.4651 18.98 18.6651 18.74C18.8651 18.492 18.9651 18.056 18.9651 17.432V14ZM30.063 19.244C29.455 19.852 28.707 20.156 27.819 20.156C26.931 20.156 26.183 19.852 25.575 19.244C24.967 18.636 24.663 17.888 24.663 17C24.663 16.112 24.967 15.364 25.575 14.756C26.183 14.148 26.931 13.844 27.819 13.844C28.707 13.844 29.455 14.148 30.063 14.756C30.679 15.372 30.987 16.12 30.987 17C30.987 17.88 30.679 18.628 30.063 19.244ZM27.819 19.136C28.419 19.136 28.923 18.932 29.331 18.524C29.739 18.116 29.943 17.608 29.943 17C29.943 16.392 29.739 15.884 29.331 15.476C28.923 15.068 28.419 14.864 27.819 14.864C27.227 14.864 26.727 15.068 26.319 15.476C25.911 15.884 25.707 16.392 25.707 17C25.707 17.608 25.911 18.116 26.319 18.524C26.727 18.932 27.227 19.136 27.819 19.136ZM37.1434 14V19.004H37.9714V21.608H36.9394V20H32.4394V21.608H31.4074V19.004H32.1394C32.5234 18.476 32.7154 17.736 32.7154 16.784V14H37.1434ZM33.3274 19.004H36.1114V14.972H33.7474V16.784C33.7474 17.664 33.6074 18.404 33.3274 19.004ZM40.1287 18.212L43.4527 14H44.2927V20H43.2607V15.788L39.9367 20H39.0967V14H40.1287V18.212ZM51.1258 13.844C52.0058 13.844 52.7498 14.148 53.3578 14.756C53.9738 15.372 54.2818 16.12 54.2818 17C54.2818 17.88 53.9738 18.628 53.3578 19.244C52.7498 19.852 52.0058 20.156 51.1258 20.156C50.3338 20.156 49.6498 19.904 49.0738 19.4C48.4898 18.896 48.1458 18.26 48.0418 17.492H46.9258V20H45.8818V14H46.9258V16.496H48.0418C48.1538 15.728 48.4978 15.096 49.0738 14.6C49.6658 14.096 50.3498 13.844 51.1258 13.844ZM51.1258 19.136C51.7178 19.136 52.2178 18.932 52.6258 18.524C53.0338 18.116 53.2378 17.608 53.2378 17C53.2378 16.392 53.0338 15.884 52.6258 15.476C52.2178 15.068 51.7178 14.864 51.1258 14.864C50.5258 14.864 50.0218 15.068 49.6138 15.476C49.2058 15.884 49.0018 16.392 49.0018 17C49.0018 17.608 49.2058 18.116 49.6138 18.524C50.0218 18.932 50.5258 19.136 51.1258 19.136Z" fill="white"/>
</svg>
